# xmcd
#
# Track frame offsets:
#	150
#	17446
#	32870
#	46397
#	61477
#	83468
#	101395
#	117238
#	136669
#	157333
#	168794
#	185736
#
# Disc length: 2682 seconds
#
# Revision: 2
# Processed by: cddbd v1.5.2PL0 Copyright (c) Steve Scherf et al.
# Submitted via: audiograbber 1.83.01
#
DISCID=920a780c
DTITLE=Wanita - The Orginal Wanita
DYEAR=2013
DGENRE=Honky Tonk
TTITLE0=A Letter To Mum
TTITLE1=Too Country For Country
TTITLE2=It Took A While
TTITLE3=Sweet Moonlight
TTITLE4=The Aftershave Song
TTITLE5=A Sad Blue Song
TTITLE6=If There's A Honky Tonk In Hell
TTITLE7=I'm Now The Bottle's Girl
TTITLE8=When His Dinner Has Gone Cold
TTITLE9=Hell Hath No Fury
TTITLE10=Living Out My Dreams
TTITLE11=Two Sides Of The Coin
EXTD=
EXTT0=
EXTT1=
EXTT2=
EXTT3=
EXTT4=
EXTT5=
EXTT6=
EXTT7=
EXTT8=
EXTT9=
EXTT10=
EXTT11=
PLAYORDER=
